<?xml version="1.0"?><svg fill="#000000" xmlns="http://www.w3.org/2000/svg"  viewBox="0 0 50 50" width="50px" height="50px">    <path d="M 17.5 1 C 12.813 1 9 4.813 9 9.5 L 9 18.513672 C 9.419 18.195672 9.935 18 10.5 18 L 12 18 L 12 9.5 C 12 6.636 14.201 4.2744844 17 4.0214844 L 17 14.5 C 17 18.084 19.916 21 23.5 21 L 26.5 21 C 30.084 21 33 18.084 33 14.5 L 33 4.0214844 C 35.799 4.2744844 38 6.635 38 9.5 L 38 18 L 39.5 18 C 40.065 18 40.581 18.195672 41 18.513672 L 41 9.5 C 41 4.813 37.187 1 32.5 1 L 31.5 1 C 30.671 1 30 1.672 30 2.5 L 30 14.5 C 30 16.43 28.43 18 26.5 18 L 23.5 18 C 21.57 18 20 16.43 20 14.5 L 20 2.5 C 20 1.672 19.329 1 18.5 1 L 17.5 1 z M 10.5 20 C 10.224 20 10 20.224 10 20.5 L 10 43.5 C 10 43.776 10.224 44 10.5 44 L 11.5 44 C 11.776 44 12 43.776 12 43.5 L 12 20.5 C 12 20.224 11.776 20 11.5 20 L 10.5 20 z M 38.5 20 C 38.224 20 38 20.224 38 20.5 L 38 42 L 38 42.921875 L 35.625 45 L 29.738281 45 A 4.5 3 0 0 0 25.5 43 A 4.5 3 0 0 0 21 46 A 4.5 3 0 0 0 25.5 49 A 4.5 3 0 0 0 29.736328 47 L 36 47 A 1.0001 1.0001 0 0 0 36.658203 46.751953 L 39.658203 44.126953 A 1.0001 1.0001 0 0 0 40 43.375 L 40 43 L 40 42 L 40 20.5 C 40 20.224 39.776 20 39.5 20 L 38.5 20 z M 8 21 C 4.009 21 1 25.944 1 32.5 C 1 39.056 4.009 44 8 44 C 8.552 44 9 43.553 9 43 L 9 22 C 9 21.447 8.552 21 8 21 z M 42 21 C 41.448 21 41 21.447 41 22 L 41 43 C 41 43.553 41.448 44 42 44 C 45.991 44 49 39.056 49 32.5 C 49 25.944 45.991 21 42 21 z M 14 23 L 14 41 L 36 41 L 36 23 L 14 23 z M 16 25 L 18.935547 25 C 19.698547 25 20.318875 25.298484 20.796875 25.896484 C 21.274875 26.492484 21.513672 27.498109 21.513672 28.912109 C 21.513672 29.433109 21.445547 29.903266 21.310547 30.322266 C 21.175547 30.741266 21.001156 31.102297 20.785156 31.404297 C 21.139156 31.732297 21.431203 32.179234 21.658203 32.740234 C 21.886203 33.302234 22 34.017813 22 34.882812 C 22 36.174813 21.746188 37.181203 21.242188 37.908203 C 20.737188 38.635203 20.065563 39 19.226562 39 L 16 39 L 16 25 z M 23 25 L 25 25 L 25 36 L 28 36 L 28 39 L 23 39 L 23 25 z M 29 25 L 34 25 L 34 28 L 31 28 L 31 30 L 33.5 30 L 33.5 33 L 31 33 L 31 36 L 34 36 L 34 39 L 29 39 L 29 25 z M 18.03125 27.636719 L 18.03125 30.445312 L 18.8125 30.445312 C 19.1055 30.445312 19.335953 30.332469 19.501953 30.105469 C 19.666953 29.878469 19.75 29.51925 19.75 29.03125 C 19.75 28.49925 19.673484 28.135547 19.521484 27.935547 C 19.369484 27.736547 19.160531 27.636719 18.894531 27.636719 L 18.03125 27.636719 z M 18 33 L 18 36.375 L 19 36.375 C 19.272 36.375 19.588906 36.234172 19.753906 35.951172 C 19.918906 35.669172 20 35.268 20 34.75 C 20 34.183 19.924437 33.751172 19.773438 33.451172 C 19.621437 33.151172 19.251 33 19 33 L 18 33 z"/></svg>