<svg xmlns="http://www.w3.org/2000/svg"  viewBox="0 0 64 64" width="64px" height="64px"><path fill="#fff" d="M49.339,40.029c-2.719,0-4.609-1.447-4.866-3.652c-0.227,0.091-0.491,0.138-0.787,0.138h-0.741	c-1.09,0-1.741-0.643-1.741-1.72v-2.583c0-0.634-0.12-0.794-0.125-0.801c-0.051-0.062-0.154-0.107-0.266-0.107	c0,0-0.119,0.001-0.119,0.001c-0.148,0-0.285,0.063-0.384,0.17c-0.016,0.019-0.155,0.22-0.155,0.715v2.583	c0,1.061-0.667,1.72-1.741,1.72h-0.741c-0.764,0-1.322-0.333-1.58-0.908c-0.249,0.593-0.808,0.929-1.596,0.929h-0.741	c-0.78,0-1.335-0.329-1.588-0.911c-0.253,0.582-0.808,0.911-1.588,0.911H29.84c-1.074,0-1.741-0.659-1.741-1.72v-0.217	c-0.854,1.349-2.386,2.212-4.208,2.212c-1.735,0-3.207-0.782-4.081-2.022v0.387c0,0.861-0.599,1.487-1.423,1.487	c-0.465,0-0.946-0.19-1.375-0.526c-0.647,0.422-1.409,0.654-2.196,0.654h-0.155c-1.06,0-2.08-0.392-2.871-1.104	c-0.366-0.354-0.656-0.769-0.872-1.246v0.735c0,0.861-0.599,1.487-1.423,1.487c-0.464,0-0.949-0.19-1.38-0.526	C7.42,36.539,6.55,36.79,5.684,36.79C2.97,36.79,1,34.775,1,32s1.97-4.79,4.684-4.79c0.356,0,0.708,0.041,1.052,0.121	c0.178-2.061,1.5-3.276,2.78-3.276c0.813,0,1.402,0.625,1.402,1.487v2.403c0.301-0.296,0.733-0.46,1.266-0.46h0.741	c1.09,0,1.741,0.651,1.741,1.741v2.498c0,0.477,0.055,0.799,0.156,0.907c0.025,0.024,0.122,0.064,0.195,0.064	c0.164-0.002,0.297-0.024,0.394-0.127c0.037-0.04,0.156-0.213,0.156-0.801v-2.541c0-1.074,0.667-1.741,1.741-1.741h0.741	c1.087,0,1.762,0.667,1.762,1.741v0.006c0.874-1.24,2.346-2.022,4.081-2.022c1.822,0,3.354,0.863,4.208,2.212v-1.614	c0-2.349,1.423-3.752,2.799-3.752c0.63,0,1.128,0.365,1.329,0.921c0.398-0.605,1.087-1.006,1.869-1.006l0.106,0.002	c0.583,0.038,1.119,0.3,1.508,0.74c0.392,0.442,0.586,1.008,0.548,1.593c-0.037,0.579-0.298,1.096-0.694,1.467	c0.194,0.13,0.35,0.302,0.462,0.512c0.199-0.559,0.698-0.926,1.33-0.926c0.471,0,0.964,0.201,1.404,0.553	c0.679-0.439,1.478-0.68,2.301-0.68c1.322,0,2.48,0.479,3.262,1.347c0.322,0.357,0.569,0.76,0.746,1.228	c0.576-1.528,2.121-2.511,4.143-2.511c0.782,0,1.258,0.079,1.64,0.142c0.217,0.036,0.407,0.07,0.647,0.07c0.005,0,0.01,0,0.015,0	c0.341,0,0.6-0.075,0.806-0.206c0.246-0.142,0.575-0.303,1-0.303c0.761,0,1.33,0.579,1.413,1.404	c0.865-0.749,2.022-1.192,3.329-1.192C60.877,27.21,63,29.27,63,32s-2.123,4.79-4.938,4.79c-1.635,0-3.037-0.695-3.924-1.812	c0.063,0.284,0.097,0.578,0.097,0.875C54.235,38.312,52.222,40.029,49.339,40.029z M49.361,35.35c-0.694,0-0.694,0.331-0.694,0.439	c0,0.247,0.305,0.44,0.694,0.44c0.389,0,0.693-0.193,0.693-0.44C50.054,35.426,49.677,35.35,49.361,35.35z M53.283,33.261	c-0.011-0.043-0.022-0.087-0.032-0.132c-0.012,0.018-0.024,0.036-0.037,0.054C53.238,33.209,53.261,33.235,53.283,33.261z M45.428,33.236c0.012-0.013,0.024-0.027,0.037-0.04c-0.012-0.018-0.024-0.036-0.037-0.054V33.236z M58.083,31.2	c-0.604,0-0.694,0.501-0.694,0.8s0.09,0.8,0.694,0.8c0.46,0,0.693-0.269,0.693-0.8C58.777,31.701,58.687,31.2,58.083,31.2z M23.891,31.2c-0.604,0-0.693,0.501-0.693,0.8s0.09,0.8,0.693,0.8c0.46,0,0.694-0.269,0.694-0.8	C24.585,31.701,24.495,31.2,23.891,31.2z M6.001,31.2c-0.447,0-0.736,0.314-0.736,0.8c0,0.493,0.282,0.8,0.736,0.8	s0.715-0.292,0.715-0.8C6.716,31.514,6.436,31.2,6.001,31.2z M49.361,31.031c-0.376,0-0.376,0.189-0.376,0.292	c0.005,0.16,0.175,0.313,0.379,0.313c0.231-0.007,0.343-0.197,0.354-0.372C49.716,31.221,49.716,31.031,49.361,31.031z M32.323,28.146c0.082-0.117,0.179-0.219,0.29-0.307c-0.106-0.093-0.204-0.197-0.29-0.311V28.146z"/><linearGradient id="yEeq9ndmEm11Fw5HMG209a" x1="32" x2="32" y1="23.149" y2="35.579" gradientUnits="userSpaceOnUse"><stop offset="0" stop-color="#1a6dff"/><stop offset="1" stop-color="#c822ff"/></linearGradient><path fill="url(#yEeq9ndmEm11Fw5HMG209a)" d="M34.138,24.971c0.656,0.042,1.164,0.614,1.122,1.27c-0.041,0.631-0.57,1.125-1.194,1.125	c-0.025,0-0.051-0.001-0.076-0.002c-0.635-0.021-1.122-0.55-1.122-1.186c0-0.677,0.572-1.207,1.228-1.207H34.138 M30.899,25.056	c0.254,0,0.423,0.169,0.423,0.487v9.252c0,0.529-0.212,0.72-0.741,0.72h-0.741c-0.508,0-0.741-0.191-0.741-0.72v-6.987	C29.1,26.051,30.073,25.056,30.899,25.056 M9.516,25.056c0.254,0,0.402,0.169,0.402,0.487v9.612c0,0.339-0.169,0.487-0.423,0.487	c-0.381,0-0.91-0.318-1.291-0.889c-0.466,0.55-1.418,1.037-2.519,1.037C3.482,35.79,2,34.181,2,32s1.524-3.79,3.684-3.79	c0.72,0,1.418,0.212,2.032,0.614v-1.016C7.716,26.051,8.711,25.056,9.516,25.056 M6.001,33.8c0.974,0,1.715-0.699,1.715-1.8	c0-1.08-0.762-1.8-1.715-1.8c-0.953,0-1.736,0.72-1.736,1.8S5.028,33.8,6.001,33.8 M53.32,27.999c0.275,0,0.423,0.275,0.423,0.614	c0.064,0.741-0.402,1.397-1.101,1.63c0.148,0.296,0.212,0.614,0.212,0.953c0,0.805-0.423,1.546-1.101,2.117	c0.932,0.445,1.482,1.524,1.482,2.541c0,1.905-1.546,3.176-3.896,3.176s-3.896-1.249-3.896-3.176	c-0.021-1.059,0.55-2.032,1.482-2.541c-0.699-0.572-1.101-1.313-1.101-2.117c0-1.673,1.313-2.901,3.387-2.901	c1.228,0,1.588,0.212,2.286,0.212c0.033,0.002,0.067,0.002,0.101,0.002c0.435,0,0.881-0.126,1.254-0.362	C53.002,28.062,53.15,27.999,53.32,27.999 M49.363,32.636c0.013,0,0.026,0,0.04-0.001c0.72-0.021,1.27-0.593,1.313-1.313	c0-0.762-0.55-1.291-1.355-1.291s-1.376,0.508-1.376,1.291C48.005,32.051,48.619,32.636,49.363,32.636 M49.361,37.229	c0.974,0,1.694-0.635,1.694-1.44c0-0.847-0.656-1.44-1.694-1.44c-1.037,0-1.694,0.572-1.694,1.44	C47.667,36.594,48.387,37.229,49.361,37.229 M58.062,28.21C60.306,28.21,62,29.777,62,32s-1.694,3.79-3.938,3.79	s-3.938-1.588-3.938-3.79C54.124,29.777,55.818,28.21,58.062,28.21 M58.083,33.8c1.037,0,1.694-0.741,1.694-1.8	c0-1.037-0.656-1.8-1.694-1.8c-1.037,0-1.694,0.762-1.694,1.8S57.046,33.8,58.083,33.8 M23.891,28.21	c2.244,0,3.938,1.567,3.938,3.79s-1.694,3.79-3.938,3.79s-3.938-1.588-3.938-3.79C19.953,29.777,21.647,28.21,23.891,28.21 M23.891,33.8c1.037,0,1.694-0.741,1.694-1.8c0-1.037-0.656-1.8-1.694-1.8c-1.037,0-1.694,0.762-1.694,1.8S22.854,33.8,23.891,33.8 M41.061,28.231c1.08,0,1.948,0.381,2.519,1.016c0.572,0.635,0.847,1.503,0.847,2.9v2.646c0,0.508-0.191,0.72-0.741,0.72h-0.741	c-0.55,0-0.741-0.212-0.741-0.72v-2.583c0-0.656-0.106-1.122-0.339-1.418c-0.26-0.32-0.652-0.489-1.051-0.489	c-0.024,0-0.047,0.001-0.071,0.002c-0.022-0.001-0.045-0.002-0.067-0.002c-0.42,0-0.816,0.187-1.097,0.489	c-0.254,0.296-0.423,0.762-0.423,1.397v2.583c0,0.529-0.233,0.72-0.741,0.72h-0.741c-0.508,0-0.741-0.191-0.741-0.72v-5.928	c0-0.339,0.169-0.487,0.423-0.487c0.381,0,0.91,0.318,1.313,0.932C39.283,28.613,40.151,28.231,41.061,28.231 M34.498,28.486	c0.55,0,0.741,0.212,0.741,0.741v5.568c0,0.508-0.191,0.72-0.741,0.72h-0.741c-0.55,0-0.741-0.212-0.741-0.72v-5.568	c0-0.508,0.191-0.741,0.741-0.741H34.498 M18.048,28.486c0.529,0,0.762,0.212,0.762,0.741v5.928c0,0.339-0.169,0.487-0.423,0.487	c-0.381,0-0.91-0.318-1.291-0.91c-0.577,0.66-1.395,1.038-2.278,1.038c-0.024,0-0.048,0-0.072-0.001	c-0.028,0.001-0.057,0.001-0.085,0.001c-0.816,0-1.588-0.295-2.202-0.848c-0.656-0.635-1.016-1.609-1.016-3.006v-2.689	c0-0.508,0.191-0.741,0.741-0.741h0.741c0.55,0,0.741,0.212,0.741,0.741v2.498c0,0.847,0.148,1.291,0.423,1.588	c0.238,0.238,0.587,0.383,0.927,0.383c0.023,0,0.046-0.001,0.068-0.002c0.402,0,0.783-0.148,1.059-0.445	c0.275-0.296,0.423-0.762,0.423-1.482v-2.541c0-0.529,0.233-0.741,0.741-0.741H18.048 M34.203,22.971h-0.064h-0.042	c-0.656,0-1.267,0.195-1.776,0.53c-0.394-0.283-0.881-0.446-1.421-0.446c-1.714,0-3.481,1.496-3.761,4.041	c-0.921-0.565-2.03-0.886-3.247-0.886c-1.421,0-2.695,0.438-3.695,1.191c-0.486-0.579-1.234-0.916-2.148-0.916h-0.741	c-0.93,0-1.699,0.375-2.183,1.001c-0.479-0.631-1.249-1.001-2.199-1.001h-0.741c-0.09,0-0.179,0.003-0.265,0.01v-0.953	c0-1.418-1.033-2.487-2.402-2.487c-1.505,0-3.052,1.155-3.596,3.159c-0.079-0.003-0.157-0.005-0.236-0.005	C2.444,26.21,0,28.699,0,32s2.444,5.79,5.684,5.79c0.835,0,1.661-0.186,2.389-0.519c0.457,0.24,0.944,0.371,1.422,0.371	c0.815,0,1.511-0.372,1.946-0.967c0.923,0.709,2.052,1.095,3.22,1.095l0.085-0.001l0.072,0.001c0.757,0,1.495-0.171,2.164-0.492	c0.451,0.235,0.931,0.364,1.406,0.364c0.807,0,1.499-0.365,1.934-0.952c0.981,0.697,2.208,1.1,3.57,1.1	c1.455,0,2.756-0.46,3.767-1.246c0.48,0.612,1.243,0.971,2.182,0.971h0.741c0.615,0,1.154-0.154,1.588-0.432	c0.434,0.278,0.973,0.432,1.588,0.432h0.741c0.623,0,1.168-0.158,1.604-0.442c0.431,0.271,0.964,0.421,1.571,0.421h0.741	c0.99,0,1.784-0.399,2.258-1.073c0.472,0.687,1.272,1.094,2.273,1.094h0.741c0.005,0,0.009,0,0.014,0	c0.709,2.123,2.832,3.515,5.639,3.515c2.989,0,5.202-1.578,5.759-3.963c0.862,0.463,1.869,0.724,2.964,0.724	C61.447,37.79,64,35.301,64,32s-2.553-5.79-5.938-5.79c-1.062,0-2.042,0.245-2.887,0.683c-0.438-0.555-1.095-0.895-1.855-0.895	c-0.738,0-1.28,0.31-1.458,0.412l-0.038,0.022l-0.037,0.024c-0.05,0.032-0.125,0.053-0.186,0.053l-0.046-0.002l-0.055,0	c-0.131,0-0.243-0.018-0.484-0.057c-0.396-0.065-0.939-0.155-1.802-0.155c-1.707,0-3.158,0.616-4.123,1.639	c-0.007-0.008-0.015-0.016-0.022-0.025c-0.974-1.082-2.397-1.678-4.006-1.678c-0.788,0-1.557,0.178-2.254,0.511	c-0.463-0.249-0.957-0.384-1.451-0.384c-0.033,0-0.067,0.001-0.1,0.002c0.052-0.849-0.231-1.669-0.798-2.31	c-0.565-0.639-1.344-1.021-2.192-1.075L34.203,22.971L34.203,22.971z"/></svg>